PathFileType	4	(X/Y/Z)	12_2_98_p0_0-231.trc
DataRate	CameraRate	NumFrames	NumMarkers	Units	OrigDataRate	OrigDataStartFrame	OrigNumFrames
60.0	60.0	5	27	m	60.0	116	232
Frame#	Time	RHip			RKnee			RAnkle			RBigToe			RSmallToe			RHeel			LHip			LKnee			LAnkle			LBigToe			LSmallToe			LHeel			Neck			Head			Nose			RShoulder			RElbow			RWrist			RThumb			RIndex			RPinky			LShoulder			LElbow			LWrist			LThumb			LIndex			LPinky			
		X1	Y1	Z1	X2	Y2	Z2	X3	Y3	Z3	X4	Y4	Z4	X5	Y5	Z5	X6	Y6	Z6	X7	Y7	Z7	X8	Y8	Z8	X9	Y9	Z9	X10	Y10	Z10	X11	Y11	Z11	X12	Y12	Z12	X13	Y13	Z13	X14	Y14	Z14	X15	Y15	Z15	X16	Y16	Z16	X17	Y17	Z17	X18	Y18	Z18	X19	Y19	Z19	X20	Y20	Z20	X21	Y21	Z21	X22	Y22	Z22	X23	Y23	Z23	X24	Y24	Z24	X25	Y25	Z25	X26	Y26	Z26	X27	Y27	Z27	
116	1.9333333333333333	0.4330509374692512	0.4801476889057396	1.0437496533356014	0.4720227900600611	0.525181408202923	1.4981834868424162	0.5108627695374441	0.5769927508730163	1.9171635009462897	0.4714677702797484	0.3646332186812566	1.916637754638221	0.5358444041057986	0.38269680005342693	1.9003024875520607	0.4956210801518432	0.6602519691812125	2.0167371000435446	0.24590341849324446	0.4635042106997343	1.0531102373718924	0.26639426127240884	0.5346795414171986	1.5348533447160029	0.30750159816324707	0.5605048642850137	1.9376432786890447	0.3115190706626512	0.36061879818125026	1.9249938044713795	0.25216103074093205	0.4061394339232094	1.9294043626396176	0.32324248588127374	0.6151379221585939	2.0085671577417585	0.31139460059590385	0.5352893193682604	0.5337077808201836	0.2920522805228058	0.508806975811759	0.28743585435934993	0.30752088878788936	0.3925314329562046	0.39766142108310265	0.4579639790617384	0.5511901751670014	0.6068204310628207	0.544572050773121	0.48405226162185144	0.8286794530968502	0.558467898734324	0.44707994325973766	1.076711128557669	0.5080268877362492	0.4237042455441558	1.1952707356466066	0.5291026391149524	0.38357159127687324	1.191372902662134	0.5782797281678268	0.423855063289924	1.1970885566816478	0.16141193210220706	0.5423702072268904	0.6167431141893636	0.13657800533794082	0.5208524357161954	0.8641767973683048	0.14957412174698326	0.43547027312808817	1.0925470988839228	0.18216846900667497	0.4338519465642843	1.18975025043931	0.16698676269118262	0.4202866645133646	1.1923711156496355	0.1329137723899765	0.42421908969260136	1.198454015736964
117	1.95	0.4365920616077554	0.4664764562983543	1.038300099768539	0.47201510948033026	0.5252111237814422	1.4981735628355273	0.5116240636040509	0.5748326996399462	1.9206235585354894	0.4714566065450512	0.3647284922601736	1.9166995748630078	0.5399158185925341	0.3942024772052962	1.9075928149647556	0.49564853733293024	0.6602224113260493	2.016760874006586	0.24573124170525373	0.4634040556510806	1.0566391769073347	0.26641031614450644	0.5345301816087243	1.5348827767957007	0.31567504491807646	0.5765821772220522	1.9468187916887183	0.31542755363411173	0.34729184413079195	1.9151339299974535	0.2521712625923139	0.4060629073999392	1.92938919018837	0.32691685518485586	0.6273544364234744	2.016278221045687	0.31138678513308415	0.5352180388780033	0.5337008797293682	0.2882315798725282	0.5067964033935687	0.28757922271048136	0.30748744119444177	0.39247755457771194	0.3976181431673116	0.45796741524596396	0.551185236069826	0.606814456423564	0.544585015301338	0.4840048756038571	0.82861212025888	0.5615085203327859	0.43349925364050773	1.0710323152734549	0.5079792781814988	0.4236625618779725	1.1952622168856033	0.5290536764054244	0.38345521406463373	1.191328439431505	0.5784726495218913	0.4244495750109395	1.1972360758523501	0.1575807269142483	0.5404649893219992	0.6167725761783133	0.14298344797696708	0.5179209987323361	0.8589027940402411	0.14953816616303303	0.43542695273350995	1.0925413667789616	0.18212650248330453	0.4337635567830182	1.1897500129774163	0.1669312196380431	0.4201650118969816	1.1923791432699502	0.13286058819478885	0.42393306413055126	1.198298625441192
118	1.9666666666666666	0.4365794491400358	0.46648243825897384	1.03832539219259	0.47236962942898675	0.5249723051887044	1.4938228872738895	0.5116190489003327	0.5748162940316431	1.9205966513031054	0.47150194013554414	0.3647733358736569	1.9167277058675227	0.5399402446542451	0.3942463869100245	1.9075945748403431	0.4955586863158314	0.660108619913518	2.016586999488784	0.2458891007895899	0.46357574643863936	1.0530455249567898	0.2668744781453561	0.5343777981859715	1.5306128655878397	0.3156788969741226	0.5765666509530023	1.9468638424739477	0.31542666439873585	0.3469524689491006	1.9150567821947597	0.2521769411187418	0.40601782552076604	1.9294974832048757	0.32689139429134073	0.6272780589157358	2.016242533712843	0.31137511257485606	0.5351638178769633	0.5336985425809297	0.2920340890107711	0.5090791883801902	0.28725223478170864	0.3074275763037911	0.3926190953195167	0.3975745777625943	0.45796755855602717	0.551171742854891	0.6068128777968864	0.544624119023735	0.4840277404154904	0.8285649581755851	0.5616698345010939	0.43353883266902354	1.071078820804577	0.507965444795722	0.42365820666948845	1.1952476181309277	0.5246327977512202	0.38395116121580425	1.1884732950455743	0.5783370801918843	0.42421946673202393	1.1971949795198262	0.15754271004916687	0.5404671173218841	0.6167694935101847	0.13848536446660142	0.5312519166990876	0.8632553621961329	0.14955520285502727	0.435310483383936	1.092488919253909	0.18211072981112064	0.4334223618087398	1.1896455875904102	0.16689270319322935	0.4198943102641736	1.1922384017589276	0.13287883273029694	0.4232273579545438	1.1978346237363298
119	1.9833333333333334	0.4329947202023512	0.48031053291388365	1.0436692013840723	0.47230072046103544	0.5249617588141331	1.4937521306911816	0.5116262283304364	0.5747765474499128	1.9204868972380427	0.47150136944326543	0.3648728602814228	1.9167884285722858	0.5399087947683829	0.39432686118721494	1.9076630627281066	0.49566830721436334	0.6602256071026111	2.016708990138754	0.24147042095763835	0.4768372774331599	1.0583230241216508	0.2669093455815433	0.534501793534162	1.5307110918696096	0.31569327487624776	0.5765061068052779	1.9468276160421105	0.3114930872160725	0.36045482800318507	1.9251325488271211	0.2521385334785309	0.40623741756137755	1.9298496559428457	0.3232318034534073	0.6149571262769086	2.008475554764955	0.31085161437400327	0.5360397154438451	0.5302552612519583	0.2881984840038097	0.5068799769655737	0.2874596391758636	0.3034391250963597	0.4045697459433871	0.39951892138583095	0.4579219032712097	0.5512359451613675	0.6067621885332289	0.5439937741251923	0.4850358163156674	0.8255388076370503	0.5614719255617128	0.4336301002157085	1.0711189300479664	0.510695759489324	0.41192103782794076	1.1861359830897353	0.5246214998358135	0.3840506949631384	1.1885470379293515	0.5740181968867256	0.4130647508469225	1.1930282183632825	0.15755045213257113	0.5405461101152204	0.6167455213219056	0.13838960958689892	0.5316875886199403	0.863385543381944	0.14955380459869538	0.4352158065194513	1.0925425601908914	0.183918201660674	0.40928060072856004	1.1796463429552844	0.16694988433922678	0.41930702610507825	1.1921303025758736	0.13286153278627677	0.4229014770105338	1.1976667685308848
120	2.0	0.4339387999067173	0.48139596477141083	1.0482179546127233	0.4724069312045746	0.5250629794791108	1.4938702213455213	0.507143490984934	0.5732218582937443	1.920249536888916	0.47552052878731754	0.3768236511101506	1.9245693308961573	0.541502534111434	0.39596111022710995	1.9129440919370204	0.4937961602283723	0.6582381882065736	2.0097188396491945	0.2379339169810283	0.4911414814216132	1.0688550590809929	0.2664109726575342	0.5343671834568905	1.5351552285773524	0.3083251458326867	0.5582692913226092	1.9411731914584245	0.31503468684577834	0.3724392323000937	1.9328600719819948	0.2521254568415573	0.40631522751323934	1.9297588337750733	0.3232929314199975	0.6149042919695555	2.0084688452813935	0.3109741157292113	0.5361967483213889	0.5301507349431693	0.2878831095005725	0.5075615324239632	0.28412459919637273	0.30730429974452167	0.3928138071201474	0.39748706030308006	0.45789850371797225	0.5512137508731093	0.6067222943313827	0.5445772747874431	0.48398489932391203	0.8286524440123247	0.561435672270913	0.4332062389911272	1.071007161964142	0.5073605014095426	0.42493144908791974	1.1922187148787255	0.5245764105766054	0.3842744962409048	1.1887294038276768	0.5733174437573043	0.41158605598689507	1.19279441503941	0.16138481071030333	0.5422598187944694	0.6165596704172079	0.13902344776355216	0.5327608906006059	0.8672816252061666	0.14960312871551282	0.4352320930394578	1.092533139907459	0.1839719056317791	0.4090923405012602	1.1794333968101292	0.1670529453794385	0.4193331017533565	1.1918978316393765	0.13215001270602397	0.42140350120985565	1.192721937245332
